SplineFontDB: 3.0
FontName: KisStM
FullName: Sorts Mill Kis
FamilyName: Sorts Mill Kis
Weight: Regular
Copyright: Created by trashman with FontForge 2.0 (http://fontforge.sf.net)
UComments: "Cut 3200-dpi samples to 640 pixels high. Scale by a factor of 1.1.+AAoACgAA-Cut 6400-dpi samples to 1280 pixels high. Scale by a factor of 1.1." 
Version: 001.000
ItalicAngle: 0
UnderlinePosition: -100
UnderlineWidth: 49
Ascent: 700
Descent: 300
LayerCount: 3
Layer: 0 0 "Back"  1
Layer: 1 0 "Fore"  0
Layer: 2 0 "backup"  0
NeedsXUIDChange: 1
XUID: [1021 658 797806517 2478896]
FSType: 0
OS2Version: 0
OS2_WeightWidthSlopeOnly: 0
OS2_UseTypoMetrics: 1
CreationTime: 1263111985
ModificationTime: 1263852729
OS2TypoAscent: 0
OS2TypoAOffset: 1
OS2TypoDescent: 0
OS2TypoDOffset: 1
OS2TypoLinegap: 90
OS2WinAscent: 0
OS2WinAOffset: 1
OS2WinDescent: 0
OS2WinDOffset: 1
HheadAscent: 0
HheadAOffset: 1
HheadDescent: 0
HheadDOffset: 1
OS2Vendor: 'PfEd'
MarkAttachClasses: 1
DEI: 91125
LangName: 1033 
Encoding: UnicodeBmp
UnicodeInterp: none
NameList: Adobe Glyph List
DisplaySize: -72
AntiAlias: 1
FitToEm: 1
WinInfo: 80 8 6
BeginPrivate: 9
BlueValues 23 [-16 1 392 415 665 689]
OtherBlues 11 [-292 -278]
BlueFuzz 1 0
BlueShift 1 7
BlueScale 8 0.039625
StdHW 4 [21]
StdVW 4 [73]
StemSnapH 4 [21]
StemSnapV 4 [73]
EndPrivate
BeginChars: 65536 66

StartChar: a
Encoding: 97 97 0
Width: 401
VWidth: 0
Flags: W
HStem: -13 44<123.876 199.824> -11 54<279 345.851> 370 39<143.03 226.03>
VStem: 33 73<255.322 336.789> 38 76<39.3923 120.305> 245 70<53.0714 182.997 203.848 353.496>
LayerCount: 3
Fore
SplineSet
331 43 m 0x74
 341 43 348 48 353 53 c 2
 362 62 l 2
 364 64 365 66 368 66 c 0
 373 66 381 58 381 54 c 0
 381 31 323 -11 298 -11 c 0x74
 260 -11 244 39 244 39 c 1
 244 39 184 -13 132 -13 c 0
 78 -13 38 19 38 67 c 0xac
 38 132 112 162 179 188 c 0
 241 212 245 207 245 218 c 2
 245 253 l 2
 245 321 241 370 175 370 c 0
 167 370 125 361 113 347 c 0
 109 342 106 334 106 324 c 0
 106 316 109 306 109 292 c 0
 109 266 89 252 70 252 c 0
 51 252 33 266 33 294 c 0
 33 305 37 317 45 327 c 0
 80 369 175 409 218 409 c 0
 275 409 316 374 316 322 c 0
 315 227 315 242 315 135 c 0
 315 62 316 43 331 43 c 0x74
237 183 m 0
 233 183 114 144 114 88 c 0
 114 70 123 31 161 31 c 0xac
 197 31 241 63 241 67 c 2
 242 165 l 2
 242 179 241 183 237 183 c 0
EndSplineSet
Validated: 1
Layer: 2
SplineSet
331 43 m 4x74
 341 43 348 48 353 53 c 6
 362 62 l 6
 364 64 365 66 368 66 c 4
 373 66 381 58 381 54 c 4
 381 31 323 -11 298 -11 c 4x74
 260 -11 244 39 244 39 c 5
 244 39 184 -13 132 -13 c 4
 78 -13 38 19 38 67 c 4xac
 38 132 112 162 179 188 c 4
 241 212 245 207 245 218 c 6
 245 253 l 6
 245 321 241 370 175 370 c 4
 167 370 125 361 113 347 c 4
 109 342 106 334 106 324 c 4
 106 316 109 306 109 292 c 4
 109 266 89 252 70 252 c 4
 51 252 33 266 33 294 c 4
 33 305 37 317 45 327 c 4
 80 369 175 409 218 409 c 4
 275 409 316 374 316 322 c 4
 315 227 315 242 315 135 c 4
 315 62 316 43 331 43 c 4x74
236 183 m 5
 236 183 114 146 114 88 c 4
 114 70 123 31 161 31 c 4xac
 197 31 241 63 241 67 c 6
 242 165 l 6
 242 177 242 183 236 183 c 5
EndSplineSet
EndChar

StartChar: M
Encoding: 77 77 1
Width: 912
VWidth: 0
Flags: W
HStem: -3 37<33.0469 87.7707 130.984 192.359> -3 30<608.236 696.262 805.184 876.389> 619 40<83.0385 165.15 780.623 857.994>
VStem: 703 90<59.1748 357.892>
DStem2: 515 264 485 132 0.414695 0.90996<-137.281 331.6>
LayerCount: 3
Fore
SplineSet
201 543 m 0x70
 197 543 190 501 171 389 c 0
 148 256 129 82 129 65 c 0
 129 49 137 37 148 34 c 0
 186 22 193 24 193 10 c 0
 193 2 190 -3 179 -3 c 0xb0
 165 -3 128 3 109 3 c 0
 73 3 63 0 52 0 c 0
 40 0 33 7 33 14 c 0
 33 28 40 27 61 32 c 0
 75 35 89 47 91 63 c 2
 158 514 l 2
 168 580 169 581 169 586 c 0
 169 594 161 616 136 619 c 0
 96 623 83 621 83 640 c 0
 83 655 92 659 101 659 c 0
 109 659 136 656 171 656 c 0
 189 656 209 656 245 655 c 0
 262 655 268 649 275 630 c 2
 392 305 l 2
 425 214 454 139 458 139 c 0
 461 139 484 195 515 264 c 2
 646 554 l 1
 687 646 l 2
 690 653 703 652 711 652 c 2
 770 652 l 2
 802 652 833 657 843 657 c 0
 850 657 858 655 858 641 c 0
 858 629 858 623 835 621 c 0
 788 618 778 618 778 571 c 0
 778 475 793 142 793 142 c 2
 794 112 797 83 800 58 c 0
 801 47 807 32 826 27 c 0
 856 20 877 28 877 7 c 0
 877 -1 866 -3 859 -3 c 0
 836 -3 792 1 745 1 c 0
 718 1 653 -4 623 -4 c 0
 611 -4 608 3 608 8 c 0
 608 30 620 21 679 29 c 0
 701 32 703 55 703 109 c 0
 703 128 693 552 683 552 c 0
 679 552 644 476 608 398 c 2
 536 245 l 1
 485 132 l 1
 433 14 l 2
 430 6 426 3 419 3 c 2
 415 3 l 2
 404 3 397 22 387 52 c 0
 379 75 214 543 201 543 c 0x70
EndSplineSet
Validated: 1
EndChar

StartChar: b
Encoding: 98 98 2
Width: 475
VWidth: 0
Flags: W
HStem: -16 30<202.703 294.892> 0 21G<74.5 84> 381 29<194.248 295.623> 645 20G<142 150>
VStem: 74 77<63.2943 352.019 382 598.263> 356 88<97.7517 307.089>
LayerCount: 3
Fore
SplineSet
248 410 m 0x7c
 379 410 444 317 444 204 c 0
 444 101 387 -16 246 -16 c 0xbc
 174 -16 130 23 126 23 c 0
 120 23 90 0 78 0 c 0
 71 0 70 8 70 16 c 0
 74 108 74 211 74 301 c 2
 74 500 l 2
 74 593 72 589 34 608 c 0
 28 610 27 614 27 617 c 0
 27 627 44 630 49 632 c 0
 108 651 137 665 147 665 c 0
 153 665 153 661 153 652 c 0
 153 544 151 592 151 382 c 1
 151 382 202 410 248 410 c 0x7c
249 381 m 0
 184 381 151 328 151 328 c 1
 151 190 l 2
 151 103 166 14 252 14 c 0
 327 14 356 122 356 209 c 0
 356 262 344 381 249 381 c 0
EndSplineSet
Validated: 1
EndChar

StartChar: c
Encoding: 99 99 3
Width: 418
VWidth: 0
Flags: W
HStem: -11 56<189.833 317.367> 385 26<194.438 270.66>
VStem: 25 82<126.258 293.994>
LayerCount: 3
Fore
SplineSet
246 411 m 0
 310 411 389 376 389 330 c 0
 389 305 373 286 349 286 c 0
 313 286 297 330 284 352 c 0
 275 367 267 385 243 385 c 0
 170 385 107 309 107 213 c 0
 107 97 193 45 272 45 c 0
 312 45 350 59 373 82 c 0
 380 88 392 77 387 69 c 0
 364 31 300 -11 226 -11 c 0
 97 -11 25 90 25 202 c 0
 25 307 101 411 246 411 c 0
EndSplineSet
Validated: 1
EndChar

StartChar: d
Encoding: 100 100 4
Width: 475
VWidth: 0
Flags: W
HStem: -8 42<166.665 271.122> 381 27<157.468 261.557> 645 20G<371 373>
VStem: 17 76<122.184 286.869> 307 75<54.3795 348.964 402 602.743>
LayerCount: 3
Back
SplineSet
314 -1 m 4
 314 11 317 31 317 40 c 4
 317 43 317 46 316 46 c 4
 315 46 310 42 306 37 c 4
 289 19 243 -8 196 -8 c 4
 119 -8 17 47 17 188 c 4
 17 275 68 408 245 408 c 4
 266 408 297 405 307 402 c 5
 307 442 l 6
 307 473 306 498 306 518 c 4
 305 581 307 597 276 606 c 4
 263 610 250 614 246 616 c 4
 241 619 243 636 247 637 c 4
 321 650 370 665 372 665 c 4
 374 665 383 656 383 653 c 4
 383 464 382 274 382 180 c 4
 382 74 383 55 411 48 c 4
 415 47 433.015444247 44.2480694692 435 44 c 4
 443 43 444 40 444 29 c 4
 444 24 442 18 439 18 c 4
 353 5 333 -8 323 -8 c 4
 320 -8 314 -4 314 -1 c 4
207 381 m 4
 130 381 93 306 93 225 c 4
 93 136 142 34 227 34 c 4
 302 34 307 96 307 104 c 6
 307 292 l 6
 307 342 267 381 207 381 c 4
EndSplineSet
Fore
SplineSet
314 -1 m 0
 314 11 317 31 317 40 c 0
 317 43 317 46 316 46 c 0
 315 46 310 42 306 37 c 0
 289 19 243 -8 196 -8 c 0
 119 -8 17 47 17 188 c 0
 17 275 68 408 245 408 c 0
 266 408 297 405 307 402 c 1
 307 442 l 2
 307 473 306 498 306 518 c 0
 305 581 307 597 276 606 c 0
 263 610 250 614 246 616 c 0
 241 619 243 636 247 637 c 0
 321 650 370 665 372 665 c 0
 374 665 383 656 383 653 c 0
 383 464 382 274 382 180 c 0
 382 74 383 55 411 48 c 0
 415 47 433.015444247 44.2480694692 435 44 c 0
 443 43 444 40 444 29 c 0
 444 24 442 18 439 18 c 0
 353 5 333 -8 323 -8 c 0
 320 -8 314 -4 314 -1 c 0
207 381 m 0
 130 381 93 306 93 225 c 0
 93 136 142 34 227 34 c 0
 302 34 307 96 307 104 c 2
 307 292 l 2
 307 342 267 381 207 381 c 0
EndSplineSet
Validated: 1
Layer: 2
SplineSet
312 399 m 5
 312 453 l 6
 312 501 312 568 309 582 c 4
 306 598 308 606 250 620 c 4
 241 622 242 640 251 641 c 4
 321 651 370 666 376 666 c 4
 385 666 389 658 389 642 c 4
 389 448 386 466 386 158 c 4
 386 131 386 103 387 74 c 4
 388 49 412 52 446 40 c 4
 449 39 449 35 449 29 c 4
 449 24 447 20 444 20 c 4
 357 8 334 -8 324 -8 c 4
 317 -8 316 4 316 15 c 6
 316 38 l 5
 316 38 259 -10 192 -10 c 4
 104 -10 20 62 20 188 c 4
 20 307 108 407 229 407 c 4
 270 407 312 399 312 399 c 5
213 380 m 4
 171 380 96 346 96 242 c 4
 96 171 116 32 234 32 c 4
 303 32 312 102 312 102 c 5
 312 294 l 6
 312 343 270 380 213 380 c 4
EndSplineSet
EndChar

StartChar: e
Encoding: 101 101 5
Width: 403
VWidth: 0
Flags: W
HStem: -15 54<178.157 300.391> 252 21<101 295.632> 378 25<163.276 258.553>
VStem: 20 73<124.997 272.034> 300 77<264 335.774>
LayerCount: 3
Fore
SplineSet
208 378 m 0
 145 378 103 317 101 273 c 1
 266 273 l 2
 276 273 300 274 300 297 c 0
 300 326 279 378 208 378 c 0
321 19 m 0
 284.700195312 -5.5556640625 245 -15 212 -15 c 0
 110 -15 20 72 20 198 c 0
 20 303 95 403 210 403 c 0
 322 403 377 331 377 270 c 0
 377 258 376 252 365 252 c 2
 96 252 l 1
 96 252 93 244 93 214 c 0
 93 118 157 39 265 39 c 0
 333 39 350 80 360 99 c 0
 364 106 366 107 369 108 c 0
 374 109 383 106 383 100 c 0
 383 84 352.700195312 40.4443359375 321 19 c 0
EndSplineSet
Validated: 1
Layer: 2
SplineSet
217 376 m 4
 156 376 115 308 115 279 c 4
 115 274 114 272 119 272 c 6
 278 272 l 6
 288 272 309 274 309 297 c 4
 309 318 288 376 217 376 c 4
109 251 m 4
 107 251 104 236 104 214 c 4
 104 129 159 44 273 44 c 4
 357 44 364 110 377 110 c 4
 384 110 388 107 388 103 c 4
 388 75 327 -8 225 -8 c 4
 168 -8 112 18 81 61 c 4
 50 104 36 151 36 198 c 4
 36 303 108 400 223 400 c 4
 335 400 382 322 382 270 c 4
 382 258 381 253 370 253 c 4
 268 253 288 251 109 251 c 4
EndSplineSet
EndChar

StartChar: f
Encoding: 102 102 6
Width: 291
VWidth: 0
Flags: W
HStem: -4 28<18.1027 83.0723 177.113 235.942> 359 39<168.984 279.857> 644 45<216.533 327>
VStem: 96 71<30.8212 355.997>
LayerCount: 3
Fore
SplineSet
356 594 m 0
 309 594 284 644 250 644 c 0
 191 644 168 557 168 477 c 0
 168 453 168 432 169 411 c 0
 170 398 179 398 190 398 c 2
 270 398 l 2
 277 398 280 391 280 383 c 0
 280 372 278 358 268 358 c 0
 250 358 226 359 208 359 c 0
 187 359 167 359 167 354 c 0
 165 250 165 187 165 144 c 0
 165 109 165 87 167 64 c 0
 168 48 178 26 203 24 c 0
 220 23 236 23 236 12 c 0
 236 4 234 -4 224 -4 c 0
 179 -4 138 3 103 3 c 0
 72 3 74 0 35 -2 c 0
 31 -2 18 -1 18 9 c 0
 18 19 34 21 39 22 c 0
 73 27 90 30 91 66 c 0
 94 168 96 251 96 302 c 0
 96 353 95 356 87 356 c 2
 50 356 l 2
 44 356 37 358 37 364 c 0
 37 381 81 388 87 407 c 0
 108 473 113 582 181 642 c 0
 211 669 248 689 307 689 c 0
 347 689 397 676 397 639 c 0
 397 611 378 594 356 594 c 0
EndSplineSet
Validated: 1
EndChar

StartChar: g
Encoding: 103 103 7
Width: 430
VWidth: 0
Flags: W
HStem: -292 57<106.574 258.421> -66 61<98.0049 297.258> 91 19<162.416 231.849> 362 38<328.607 400.5> 374 25<156.501 238.624>
VStem: 11 56<-232.036 -133.395> 31 57<-36 55.6154> 32 68<158.594 314.833> 290 71<157.946 326.56> 350 47<-181.855 -103.021>
LayerCount: 3
Fore
SplineSet
413 337 m 0xf1
 381 337 364 362 348 362 c 0
 337 362 328 353 323 349 c 1
 323 349 361 313 361 239 c 0
 361 142 290 91 200 91 c 0
 183 91 165 93 147 96 c 0
 132 99 123 102 123 102 c 1
 123 102 88 86 88 34 c 0xf280
 88 22 90 -5 151 -5 c 2
 238 -5 l 2
 296 -5 397 -11 397 -107 c 0
 397 -224 259 -292 140 -292 c 0
 73 -292 11 -264 11 -200 c 0xf440
 11 -132 91 -66 91 -66 c 1
 91 -66 31 -60 31 -12 c 0xf2
 31 21 47 50 64 72 c 0
 82 95 102 109 102 109 c 1
 102 109 32 137 32 242 c 0
 32 323 109 399 203 399 c 0xe9
 262 399 305 365 305 365 c 1
 306 366 347 400 389 400 c 0
 412 400 436 387 436 364 c 0
 436 348 426 337 413 337 c 0xf1
118 -68 m 2
 117 -68 67 -108 67 -155 c 0
 67 -211 142 -235 200 -235 c 0
 262 -235 350 -201 350 -140 c 0xe440
 350 -86 258 -73 154 -70 c 0
 149 -70 118 -68 118 -68 c 2
198 374 m 0xe980
 156 374 100 337 100 244 c 0
 100 151 154 110 199 110 c 0
 248 110 290 164 290 250 c 0
 290 307 259 374 198 374 c 0xe980
EndSplineSet
Validated: 1
EndChar

StartChar: h
Encoding: 104 104 8
Width: 452
VWidth: 0
Flags: HW
HStem: -3 24<15.3957 56.5653 144.663 194.908 279.142 312.756 399.373 441.98> 359 40<187.859 287.5> 647 20G<127 129>
VStem: 64 73<22.5732 342.296 352 601.373> 318 73<23.1992 329.333>
LayerCount: 3
Fore
SplineSet
29 21 m 0
 64 23 64 22 64 134 c 2
 64 486 l 2
 64 601 63 591 31 607 c 0
 17 613 12 612 12 622 c 0
 12 626 15 630 17 630 c 0
 82 648 126 667 128 667 c 0
 130 667 137 659 137 658 c 2
 137 352 l 1
 166 373 221 399 279 399 c 0
 381 399 391 303 391 236 c 0
 391 215 391 194 391 173 c 0
 391 23 391 22 431 22 c 0
 435 22 442 22 442 8 c 0
 442 1 435 -2 424 -2 c 0
 410 -2 389 1 354 1 c 0
 325 1 298 -3 290 -3 c 0
 283 -3 279 -2 279 5 c 0
 279 15 280 18 295 21 c 0
 317 25 318 35 318 107 c 2
 318 227 l 2
 318 295 309 359 228 359 c 0
 171 359 137 329 137 327 c 2
 137 116 l 2
 137 12 148 24 174 21 c 0
 194 19 193 20 195 10 c 0
 197 0 188 -3 182 -3 c 0
 164 -3 132 1 111 1 c 0
 75 1 44 -3 29 -3 c 0
 25 -3 17 -2 18 6 c 0
 19 15 19 20 29 21 c 0
EndSplineSet
Layer: 2
SplineSet
354 3 m 4x7c
 325 3 298 -4 290 -4 c 4
 283 -4 279 -2 279 5 c 4
 279 15 284 16 295 19 c 4xbc
 316 24 322 34 322 107 c 6
 322 166 l 6
 322 217 322 257 316 288 c 4
 306 335 276 359 228 359 c 4
 171 359 135 329 135 327 c 4
 135 228 138 155 138 116 c 4
 139 25 150 25 174 22 c 4
 184 21 195 19 195 10 c 4
 195 4 190 -2 184 -2 c 4
 158 -2 132 2 111 2 c 4
 87 2 51 -6 36 -6 c 4
 28 -6 25 -1 25 4 c 4
 25 10 28 15 35 16 c 4
 62 21 65 26 67 66 c 4
 69 96 72 170 72 303 c 4
 72 355 70 416 69 488 c 4
 67 592 66 592 34 610 c 4
 24 616 21 618 21 625 c 4
 21 629 25 632 27 632 c 4
 92 650 113 668 121 668 c 4
 123 668 133 661 133 658 c 4
 133 590 132 570 132 527 c 4
 132 494 132 447 135 352 c 5
 164 373 221 399 279 399 c 4
 348 399 378 360 381 308 c 4
 393 57 384 37 415 27 c 4
 428 23 442 22 442 12 c 4
 442 2 434 0 418 0 c 4
 406 0 378 3 354 3 c 4x7c
443 12 m 0
 443 1 434 -2 420 -2 c 0
 404 -2 380 2 355 2 c 0
 334 2 297 -6 291 -6 c 0
 282 -6 278 -1 278 4 c 0
 278 15 289 17 300 20 c 0
 318 25 323 34 323 107 c 0
 323 237 318 289 311 306 c 0
 293 353 242 359 219 359 c 0
 168 359 135 326 135 319 c 0
 137 216 138 155 139 116 c 0
 142 11 153 27 184 21 c 0
 187 20 196 17 196 10 c 0
 196 4 189 -2 183 -2 c 0
 157 -2 133 2 112 2 c 0
 88 2 52 -6 37 -6 c 0
 29 -6 26 -1 26 4 c 0
 26 10 33 17 40 18 c 0
 65 22 65 26 67 66 c 0
 69 96 72 170 72 303 c 0
 72 355 70 416 69 488 c 0
 67 592 66 590 34 610 c 0
 29 613 21 618 21 624 c 0
 21 628 23 632 33 635 c 0
 97 652 110 668 122 668 c 0
 128 668 134 665 134 648 c 0
 134 589 131 566 131 498 c 0
 131 464 132 419 134 352 c 1
 163 373 221 399 279 399 c 0
 347 399 375 356 382 315 c 0
 388 276 384 69 400 42 c 0
 407 30 418 25 429 24 c 0
 438 23 443 20 443 12 c 0
EndSplineSet
EndChar

StartChar: i
Encoding: 105 105 9
Width: 238
VWidth: 0
Flags: HW
HStem: -3 24<21.0554 77.7405 171.581 217.953> 386 20G<154 156.5> 569 91<88.2207 167.134>
VStem: 80 94<577.185 652.67> 90 73<24.9444 337.996>
LayerCount: 3
Fore
SplineSet
163 136 m 2xe8
 163 21 168 20 207 20 c 0
 214 20 218 20 218 7 c 0
 218 -1 214 -3 206 -3 c 0
 191 -3 162 1 121 1 c 0
 81 1 41 -3 31 -3 c 0
 24 -3 21 0 21 11 c 0
 21 21 28 19 55 21 c 0
 88 24 90 56 90 131 c 2
 90 245 l 2
 90 307 89 326 68 338 c 2
 52 347 l 2
 46 351 43 352 43 355 c 2
 43 362 l 2
 43 364 45 366 57 370 c 0
 101 384 153 406 155 406 c 0
 158 406 165 399 165 396 c 0
 163 321 163 354 163 157 c 2
 163 136 l 2xe8
125 660 m 0
 158 660 174 636 174 614 c 0
 174 592 159 569 129 569 c 0
 99 569 80 593 80 617 c 0xf0
 80 636 93 660 125 660 c 0
EndSplineSet
Layer: 2
SplineSet
156 404 m 4
 161 404 168 396 168 391 c 4
 166 316 165 342 165 145 c 4
 165 12 170 26 212 18 c 4
 220 16 221 11 221 4 c 4
 221 1 219 -7 211 -7 c 4
 205 -7 158 0 124 0 c 4
 84 0 47 -5 37 -5 c 4
 30 -5 23 -2 23 7 c 4
 23 17 31 22 55 23 c 4
 94 25 95 63 95 178 c 6
 95 195 l 6
 95 329 95 325 71 338 c 4
 51 349 47 350 47 357 c 4
 47 361 46 365 60 370 c 4
 99 384 154 404 156 404 c 4
130 659 m 4
 161 659 177 637 177 615 c 4
 177 593 162 572 134 572 c 4
 106 572 87 594 87 618 c 4
 87 637 100 659 130 659 c 4
50 23 m 0
 92 28 95 46 95 197 c 0
 95 331 95 327 71 340 c 0
 51 351 47 352 47 359 c 0
 47 363 46 367 60 372 c 0
 99 386 154 406 156 406 c 0
 160 406 167 398 167 393 c 0
 167 294 165 283 165 223 c 0
 165 198 165 164 166 112 c 0
 167 15 173 32 210 17 c 0
 218 14 221 9 221 4 c 0
 221 0 219 -8 210 -8 c 0
 201 -8 157 2 122 2 c 0
 82 2 47 -4 37 -4 c 0
 29 -4 23 0 23 10 c 0
 23 18 27 20 50 23 c 0
130 661 m 0
 161 661 177 639 177 617 c 0
 177 595 162 574 134 574 c 0
 106 574 87 596 87 620 c 0
 87 639 100 661 130 661 c 0
50 23 m 0
 92 28 95 46 95 197 c 0
 95 331 95 327 71 340 c 0
 51 351 47 352 47 359 c 0
 47 363 46 367 60 372 c 0
 99 386 154 406 156 406 c 0
 160 406 167 398 167 393 c 0
 167 294 165 283 165 223 c 0
 165 198 165 164 166 112 c 0
 167 26 172 30 195 22 c 0
 206 18 222 17 222 9 c 0
 222 7 222 -8 210 -8 c 0
 201 -8 157 2 122 2 c 0
 82 2 47 -4 37 -4 c 0
 26 -4 23 0 23 10 c 0
 23 18 25 20 50 23 c 0
130 661 m 0
 161 661 177 639 177 617 c 0
 177 595 162 574 134 574 c 0
 106 574 87 596 87 620 c 0
 87 639 100 661 130 661 c 0
EndSplineSet
EndChar

StartChar: j
Encoding: 106 106 10
Width: 258
VWidth: 0
Flags: HW
HStem: -282 21G<37 44.5> 395 20G<122.98 173> 569 91<73.2207 152.134>
VStem: 65 94<577.185 652.67> 110 73<-134.697 336.143>
LayerCount: 3
Fore
SplineSet
110 660 m 0xe8
 143 660 159 636 159 614 c 0
 159 592 144 569 114 569 c 0
 84 569 65 593 65 617 c 0xf0
 65 636 78 660 110 660 c 0xe8
110 88 m 2xe8
 110 260 l 2
 110 301 108 332 83 338 c 0
 45 347 43 345 43 353 c 2
 43 358 l 2
 43 362 43 363 47 364 c 0
 80 375 172 415 172 415 c 2
 174 415 183 408 183 406 c 2
 183 -20 l 2
 183 -140 122 -212 98 -235 c 0
 82 -251 47 -282 42 -282 c 0
 32 -282 23 -271 23 -262 c 0
 23 -256 46 -246 69 -216 c 0
 108 -166 110 -113 110 88 c 2xe8
EndSplineSet
EndChar

StartChar: k
Encoding: 107 107 11
Width: 463
VWidth: 0
Flags: HW
HStem: -3 24<16.0385 67.6873 152.605 199.967 257.261 292.985 397.299 441.128> 168 22<147.158 198.885> 372 20<252.06 305.154 388.842 432.915> 610 21<10.0088 49.9214>
VStem: 74 73<21.1552 168 190.062 598.165>
LayerCount: 3
Fore
SplineSet
186 168 m 2
 159 168 l 2
 147 168 147 161 147 151 c 2
 147 67 l 2
 147 47 150 24 166 21 c 0
 192 16 200 22 200 8 c 0
 200 0 195 -3 187 -3 c 0
 175 -3 122 1 108 1 c 0
 74 1 32 -3 26 -3 c 0
 18 -3 16 5 16 10 c 0
 16 20 25 20 50 21 c 0
 71 22 74 22 74 182 c 0
 74 248 74 341 73 473 c 0
 72 594 69 600 16 610 c 0
 11 611 10 617 10 621 c 0
 10 627 11 630 18 631 c 0
 94 643 136 661 140 661 c 0
 142 661 147 653 147 651 c 0
 147 493 146 454 146 257 c 2
 146 203 l 2
 146 190 152 190 158 190 c 2
 163 190 l 2
 185 190 196 191 231 236 c 2
 283 302 l 2
 302 327 309 342 309 352 c 0
 309 371 279 372 263 372 c 0
 255 372 252 375 252 384 c 0
 252 391 254 392 267 392 c 0
 400 392 405 395 421 395 c 0
 430 395 433 391 433 384 c 0
 433 370 426 377 401 368 c 0
 349 349 298 281 271 244 c 0
 260 229 254 223 254 220 c 0
 254 217 257 213 267 200 c 0
 383 46 390 27 424 21 c 0
 450 16 453 18 453 11 c 2
 453 6 l 2
 453 1 450 -3 442 -3 c 0
 424 -3 367 1 352 1 c 0
 318 1 273 -3 265 -3 c 0
 260 -3 257 0 257 5 c 0
 257 14 260 17 265 17 c 0
 272 17 293 18 293 29 c 0
 293 46 276 64 199 163 c 0
 195 167 191 168 186 168 c 2
EndSplineSet
Layer: 2
SplineSet
440 396 m 4
 449 396 452 394 452 388 c 6
 452 385 l 6
 452 372 413 377 387 356 c 4
 319 299 270 222 270 222 c 5
 270 222 353 106 417 29 c 4
 421 24 433 21 445 19 c 6
 457 17 l 6
 469 15 472 12 472 5 c 4
 472 0 471 -5 463 -5 c 4
 445 -5 366 0 351 0 c 4
 317 0 290 -3 282 -3 c 4
 277 -3 275 1 275 6 c 4
 275 9 276 12 278 14 c 4
 280 16 317 16 317 25 c 4
 317 36 229 147 216 164 c 4
 212 169 207 170 198 170 c 6
 178 169 l 6
 163 168 162 169 162 132 c 6
 162 67 l 6
 162 47 164 23 180 20 c 6
 204 16 l 6
 214 15 214 10 214 6 c 4
 214 -2 208 -2 200 -2 c 4
 177 -2 136 3 122 3 c 4
 83 3 48 -3 42 -3 c 4
 32 -3 29 3 29 8 c 4
 29 12 31 16 35 17 c 4
 73 22 80 18 82 31 c 4
 85 49 88 112 88 151 c 6
 88 446 l 6
 88 490 86 530 83 586 c 4
 82 597 78 601 67 604 c 4
 29 614 22 612 22 624 c 4
 22 637 31 632 92 648 c 4
 109 652 138 664 150 664 c 4
 159 664 162 652 162 642 c 4
 161 620 161 599 161 579 c 4
 160 382 160 301 160 257 c 4
 160 228 160 215 162 196 c 4
 162 189 171 190 178 190 c 4
 200 190 205 192 211 198 c 4
 228 214 237 224 251 241 c 6
 299 302 l 6
 317 325 323 340 323 352 c 4
 323 374 297 372 280 375 c 4
 269 377 268 379 268 384 c 4
 268 391 270 392 285 392 c 4
 392 392 424 396 440 396 c 4
EndSplineSet
EndChar

StartChar: l
Encoding: 108 108 12
Width: 274
VWidth: 0
Flags: HW
HStem: -3 24<41.0118 94.4192 188.094 239.986> 628 18<52.0024 76.125>
VStem: 106 73<25.95 615.344>
LayerCount: 3
Fore
SplineSet
62 646 m 0
 143 651 170 659 174 659 c 0
 176 659 182 651 182 649 c 0
 180 501 179 464 179 278 c 0
 179 217 180 164 181 64 c 0
 181 41 190 23 202 21 c 0
 214 19 222 19 228 19 c 0
 238 18 240 19 240 8 c 0
 240 -1 238 -3 228 -3 c 0
 212 -3 169 1 142 1 c 0
 117 1 66 -3 56 -3 c 0
 45 -3 41 0 41 8 c 0
 41 16 42 21 56 21 c 0
 95 21 105 38 105 71 c 0
 106 209 106 168 106 233 c 2
 106 527 l 2
 106 604 101 605 90 612 c 0
 84 616 70 622 57 628 c 0
 52 630 52 633 52 638 c 0
 52 644 55 646 62 646 c 0
EndSplineSet
EndChar

StartChar: m
Encoding: 109 109 13
Width: 232
VWidth: 0
Flags: W
HStem: 146 80<80.393 151.607>
VStem: 76 80<150.393 221.607>
LayerCount: 3
Fore
SplineSet
76 186 m 4
 76 208 94 226 116 226 c 4
 138 226 156 208 156 186 c 4
 156 164 138 146 116 146 c 4
 94 146 76 164 76 186 c 4
EndSplineSet
Validated: 1
EndChar

StartChar: n
Encoding: 110 110 14
Width: 465
VWidth: 0
Flags: HW
HStem: -3 24<18.1277 61.7532 145.87 199.996 267.779 318.14 401.316 447.996> 340 21<16.0207 55.1182> 353 48<207.459 299.036>
VStem: 67 73<22.1888 326.507> 323 73<23.1456 328.694>
LayerCount: 3
Fore
SplineSet
278 21 m 0xb8
 321 25 323 18 323 89 c 2
 323 178 l 2
 323 296 320 353 243 353 c 0xb8
 195 353 140 315 140 309 c 2
 140 104 l 2
 140 26 141 21 180 21 c 0
 202 21 200 15 200 7 c 0
 200 -2 194 -3 188 -3 c 0
 176 -3 122 1 107 1 c 0
 78 1 34 -3 28 -3 c 0
 20 -3 17 2 18 8 c 0
 19 20 21 18 40 21 c 0
 63 25 67 33 67 72 c 2
 67 287 l 2
 67 311 67 333 35 338 c 0
 30 339 27 340 24 340 c 0
 17 341 16 344 16 352 c 0
 16 358 16 360 21 361 c 0xd8
 81 375 129 402 133 402 c 0
 134 402 141 394 141 393 c 0
 140 374 140 334 140 334 c 1
 140 334 212 401 290 401 c 0
 389 401 396 330 396 218 c 2
 396 77 l 2
 396 30 400 23 430 21 c 0
 448 20 448 20 448 7 c 0
 448 0 443 -3 437 -3 c 0
 433 -3 398 1 364 1 c 0
 327 1 290 -3 280 -3 c 0
 271 -3 264 -3 265 9 c 0
 266 20 268 20 278 21 c 0xb8
EndSplineSet
EndChar

StartChar: o
Encoding: 111 111 15
Width: 450
VWidth: 0
Flags: HWO
HStem: -15 25<174.846 270.31> 376 30<177.185 274.242>
VStem: 20 85<98.7102 290.739> 347 81<102.218 296.215>
LayerCount: 3
Fore
SplineSet
220 -15 m 0
 96 -15 20 90 20 195 c 0
 20 301 102 406 233 406 c 0
 354 406 430 301 430 195 c 0
 430 90 350 -15 220 -15 c 0
224 10 m 0
 310 10 349 97 349 186 c 0
 349 280 306 376 229 376 c 0
 149 376 104 279 104 185 c 0
 104 96 144 10 224 10 c 0
EndSplineSet
EndChar

StartChar: p
Encoding: 112 112 16
Width: 469
VWidth: 0
Flags: W
HStem: -273 25<18.0645 68.7117 153.232 219.954> 0 20<211.914 287.652> 368 37<206.085 297.198>
VStem: 78 71<-246.265 10.9985 63.0759 353.286> 363 79<101.609 299.561>
LayerCount: 3
Fore
SplineSet
34 -272 m 0
 28 -272 18 -273 18 -259 c 0
 18 -253 23 -250 28 -250 c 0
 72 -248 74 -244 75 -174 c 0
 77 -13 78 69 78 209 c 2
 78 324 l 2
 78 344 63 353 44 357 c 0
 27 360 26 360 26 368 c 0
 26 371 26 374 30 375 c 0
 109 394 131 409 139 409 c 0
 141 409 148 401 148 400 c 0
 147 378 146 340 146 340 c 1
 158 350 200 405 281 405 c 0
 366 405 442 318 442 210 c 0
 442 63 351 0 249 0 c 0
 194 0 158 11 156 11 c 0
 151 11 149 9 149 2 c 0
 149 -78 148 -133 148 -170 c 0
 148 -248 155 -248 175 -248 c 2
 199 -248 l 2
 214 -248 220 -250 220 -259 c 0
 220 -273 213 -273 198 -273 c 0
 187 -273 133 -270 114 -270 c 0
 68 -270 41 -272 34 -272 c 0
149 117 m 2
 149 73 199 20 249 20 c 0
 279 20 302 37 310 44 c 0
 347 76 363 137 363 196 c 0
 363 317 297 368 244 368 c 0
 179 368 149 324 149 320 c 2
 149 117 l 2
EndSplineSet
Validated: 1
EndChar

StartChar: q
Encoding: 113 113 17
Width: 475
VWidth: 0
Flags: W
HStem: -278 32<239.021 313.395 401.039 462.863> -6 32<191.941 309.369> 388 27<168.45 262.245>
VStem: 21 85<115.008 301.62> 321 78<-242.074 12.0835 34.0505 345.422>
LayerCount: 3
Fore
SplineSet
222 415 m 0
 297 415 359 383 359 383 c 1
 359 383 375 403 382 411 c 0
 384 413 388 414 390 414 c 0
 396 414 401 409 401 402 c 0
 401 388 400 391 400 358 c 0
 399 68 399 165 399 -125 c 0
 399 -158 400 -193 401 -229 c 0
 401 -237 407 -242 417 -242 c 0
 426 -242 441 -244 449 -244 c 0
 460 -244 463 -250 463 -260 c 0
 463 -268 458 -277 442 -277 c 0
 421 -277 384 -273 359 -273 c 0
 315 -273 282 -278 256 -278 c 0
 246 -278 239 -274 239 -261 c 0
 239 -255 239 -246 255 -246 c 0
 267 -246 285 -244 297 -244 c 0
 308 -244 316 -232 317 -212 c 0
 320 -101 321 -66 321 -46 c 2
 321 -10 l 2
 321 2 320 14 315 12 c 0
 296 4 252 -6 210 -6 c 0
 80 -6 21 101 21 201 c 0
 21 306 86 414 222 415 c 0
257 26 m 0
 319 26 321 59 321 72 c 0
 321 247 322 269 322 291 c 0
 322 345 260 388 215 388 c 0
 150 387 106 329 106 243 c 0
 106 152 130 26 257 26 c 0
EndSplineSet
Validated: 1
Layer: 2
SplineSet
222 415 m 4
 297 415 359 383 359 383 c 5
 359 383 375 403 382 411 c 4
 384 413 388 414 390 414 c 4
 396 414 401 409 401 402 c 4
 401 388 400 391 400 358 c 4
 399 68 399 165 399 -125 c 4
 399 -158 400 -192 401 -228 c 4
 401 -236 407 -241 417 -241 c 4
 426 -241 441 -242 449 -242 c 4
 460 -242 463 -248 463 -258 c 4
 463 -266 459 -275 443 -275 c 4
 422 -275 384 -273 359 -273 c 4
 328 -273 283 -280 257 -280 c 4
 247 -280 239 -276 239 -263 c 4
 239 -257 239 -247 255 -247 c 4
 263 -247 283 -247 291 -246 c 4
 302 -245 315 -233 316 -213 c 4
 320 -103 321 -66 321 -46 c 6
 321 -10 l 6
 321 2 320 14 315 12 c 4
 296 4 252 -6 210 -6 c 4
 80 -6 21 101 21 201 c 4
 21 306 86 414 222 415 c 4
257 26 m 4
 319 26 321 59 321 72 c 4
 321 247 322 269 322 291 c 4
 322 345 260 388 215 388 c 4
 150 387 106 329 106 243 c 4
 106 152 130 26 257 26 c 4
EndSplineSet
EndChar

StartChar: r
Encoding: 114 114 18
Width: 332
VWidth: 0
Flags: HW
HStem: -6 34<162.058 240.957> -2 23<10.0121 71.221> 349 59<212.207 289.5>
VStem: 86 72<27.6107 323 339 346.251>
LayerCount: 3
Fore
SplineSet
271 408 m 0x70
 308 408 327 382 327 355 c 0
 327 334 313 311 291 311 c 0
 270 311 258 324 249 335 c 0
 246 339 236 349 222 349 c 0
 194 349 158 299 158 291 c 0
 157 217 157 165 157 128 c 0
 157 37 160 34 178 28 c 0
 212 17 242 22 242 7 c 0
 242 2 240 -6 232 -6 c 0xb0
 205 -6 158 3 116 3 c 0
 84 3 31 -2 24 -2 c 0
 13 -2 10 2 10 9 c 0
 10 18 14 21 35 21 c 0
 45 21 58 23 62 26 c 0
 80 38 83 37 84 109 c 0
 86 237 86 245 86 267 c 2
 86 311 l 2
 86 340 66 344 42 360 c 0
 37 363 38 375 44 376 c 0
 122 391 146 411 151 411 c 0
 153 411 161 405 161 402 c 0
 160 385 159 339 159 339 c 1
 159 339 217 408 271 408 c 0x70
EndSplineSet
Validated: 1
EndChar

StartChar: s
Encoding: 115 115 19
Width: 360
VWidth: 0
Flags: W
HStem: -11 27<144.132 230.39> 382 20G<284.5 291> 385 24<140.152 215.232>
VStem: 50 30<89.3868 139.907> 63 56<278.407 366.452> 253 57<33.6626 128.053>
LayerCount: 3
Fore
SplineSet
119 324 m 0xac
 119 227 310 247 310 108 c 0
 310 20 245 -11 196 -11 c 0
 154 -11 137 0 102 0 c 0
 92 0 74 -5 70 -5 c 0
 58 -5 56 0 56 8 c 0
 56 16 59 27 59 42 c 0
 59 81 50 109 50 124 c 0xb4
 50 137 53 138 63 140 c 0xac
 71 142 77 136 80 126 c 0xb4
 101 67 126 16 196 16 c 0
 235 16 253 52 253 84 c 0
 252 174 63 175 63 296 c 0
 63 364 106 409 183 409 c 0xac
 240 409 255 396 262 396 c 0
 265 396 282 402 287 402 c 0xcc
 295 402 298 395 298 384 c 0
 298 375 297 362 297 351 c 0
 297 325 303 300 303 291 c 0
 303 285 300 283 292 282 c 0
 279 280 279 285 277 288 c 0
 265 304 242 385 176 385 c 0
 145 385 119 365 119 324 c 0xac
EndSplineSet
Validated: 1
EndChar

StartChar: t
Encoding: 116 116 20
Width: 312
VWidth: 0
Flags: W
HStem: -10 42<166.389 267.77> 349 43<151.006 292>
VStem: 78 73<45.6699 346.875>
LayerCount: 3
Fore
SplineSet
151 138 m 2
 151 48 170 32 219 32 c 0
 249 32 268 41 280 44 c 0
 287 46 292 35 292 28 c 0
 292 12 205 -10 185 -10 c 0
 84 -10 78 54 78 138 c 2
 78 320 l 2
 78 336 78 347 60 347 c 0
 51 347 40 347 37 348 c 0
 32 349 30 356 30 361 c 0
 30 372 52 376 120 454 c 0
 127 461 133 467 139 467 c 0
 150 467 151 456 151 451 c 0
 151 431 150 412 150 402 c 0
 150 394 150 392 165 392 c 2
 279 392 l 2
 286 392 292 392 292 373 c 2
 292 367 l 2
 292 352 291 349 276 349 c 2
 164 349 l 2
 151 349 151 349 151 332 c 2
 151 138 l 2
EndSplineSet
Validated: 1
EndChar

StartChar: u
Encoding: 117 117 21
Width: 232
VWidth: 0
Flags: W
HStem: 146 80<80.393 151.607>
VStem: 76 80<150.393 221.607>
LayerCount: 3
Fore
SplineSet
76 186 m 4
 76 208 94 226 116 226 c 4
 138 226 156 208 156 186 c 4
 156 164 138 146 116 146 c 4
 94 146 76 164 76 186 c 4
EndSplineSet
Validated: 1
EndChar

StartChar: v
Encoding: 118 118 22
Width: 232
VWidth: 0
Flags: W
HStem: 146 80<80.393 151.607>
VStem: 76 80<150.393 221.607>
LayerCount: 3
Fore
SplineSet
76 186 m 4
 76 208 94 226 116 226 c 4
 138 226 156 208 156 186 c 4
 156 164 138 146 116 146 c 4
 94 146 76 164 76 186 c 4
EndSplineSet
Validated: 1
EndChar

StartChar: w
Encoding: 119 119 23
Width: 232
VWidth: 0
Flags: W
HStem: 146 80<80.393 151.607>
VStem: 76 80<150.393 221.607>
LayerCount: 3
Fore
SplineSet
76 186 m 0
 76 208 94 226 116 226 c 0
 138 226 156 208 156 186 c 0
 156 164 138 146 116 146 c 0
 94 146 76 164 76 186 c 0
EndSplineSet
Validated: 1
EndChar

StartChar: x
Encoding: 120 120 24
Width: 232
VWidth: 0
Flags: W
HStem: 146 80<80.393 151.607>
VStem: 76 80<150.393 221.607>
LayerCount: 3
Fore
SplineSet
76 186 m 4
 76 208 94 226 116 226 c 4
 138 226 156 208 156 186 c 4
 156 164 138 146 116 146 c 4
 94 146 76 164 76 186 c 4
EndSplineSet
Validated: 1
EndChar

StartChar: y
Encoding: 121 121 25
Width: 232
VWidth: 0
Flags: W
HStem: 146 80<80.393 151.607>
VStem: 76 80<150.393 221.607>
LayerCount: 3
Fore
SplineSet
76 186 m 4
 76 208 94 226 116 226 c 4
 138 226 156 208 156 186 c 4
 156 164 138 146 116 146 c 4
 94 146 76 164 76 186 c 4
EndSplineSet
Validated: 1
EndChar

StartChar: z
Encoding: 122 122 26
Width: 232
VWidth: 0
Flags: W
HStem: 146 80<80.393 151.607>
VStem: 76 80<150.393 221.607>
LayerCount: 3
Fore
SplineSet
76 186 m 4
 76 208 94 226 116 226 c 4
 138 226 156 208 156 186 c 4
 156 164 138 146 116 146 c 4
 94 146 76 164 76 186 c 4
EndSplineSet
Validated: 1
EndChar

StartChar: A
Encoding: 65 65 27
Width: 725
VWidth: 0
Flags: W
HStem: -1 28<23.0261 80.6632 147.913 261.993 416.232 506.75 619.026 696.954> 241 35<219 421>
LayerCount: 3
Fore
SplineSet
320 546 m 0
 316 546 219 276 219 276 c 1
 421 276 l 1
 339 499 l 2
 329 527 322 546 320 546 c 0
599 74 m 2
 615 35 628 27 668 27 c 2
 673 27 l 2
 684 27 697 26 697 12 c 0
 697 2 690 -1 677 -1 c 0
 656 -1 606 0 554 0 c 0
 516 0 442 -5 437 -5 c 0
 422 -5 416 -2 416 10 c 0
 416 23 425 26 436 27 c 0
 499 30 507 25 507 46 c 0
 507 50 507 56 433 241 c 1
 206 241 l 1
 161 121 145 89 144 56 c 0
 144 44 145 29 192 29 c 0
 208 29 227 30 236 30 c 0
 244 30 250 29 256 27 c 0
 262 25 262 19 262 13 c 0
 262 1 252 -4 246 -4 c 0
 232 -4 223 -3 211 -3 c 0
 177 -3 182 -1 130 -1 c 0
 75 -1 55 -6 40 -6 c 0
 32 -6 23 -4 23 12 c 0
 23 29 31 28 44 29 c 0
 55 30 74 31 81 33 c 0
 90 36 104 47 116 79 c 0
 197 293 298 575 327 645 c 0
 330 653 338 653 345 653 c 2
 355 653 l 2
 361 653 368 652 370 647 c 2
 599 74 l 2
EndSplineSet
Validated: 1
EndChar

StartChar: H
Encoding: 72 72 34
Width: 818
VWidth: 0
Flags: W
HStem: -5 25<33.0751 97.1379 250.563 336.395 498.15 579.124 712.372 777.982> 310 31<222.045 599.955> 624 24<42.0349 99.0527 238.228 333.225> 628 15<506.141 553.713 745.799 783.769>
VStem: 122 100<34.6141 310 341.035 611.024> 600 97<32.6966 309.991 341 609.803>
LayerCount: 3
Fore
SplineSet
700 546 m 0xdc
 700 453 697 220 697 80 c 0
 697 53 699 47 712 32 c 0
 720 23 724 22 755 20 c 0
 771 19 778 18 778 8 c 0
 778 -2 772 -5 760 -5 c 0
 744 -5 677 0 654 0 c 0
 605 0 522 -8 512 -8 c 0
 501 -8 498 3 498 10 c 0
 498 23 506 22 510 23 c 0
 517 24 552 27 557 28 c 0
 593 32 596 40 598 64 c 0
 600 84 600 110 600 149 c 2
 600 292 l 2
 600 307 598 310 576 310 c 2
 241 310 l 2
 222 310 221 309 221 285 c 0
 221 198 220 184 220 140 c 0
 220 37 225 40 253 31 c 0
 260 28 274 27 321 25 c 0
 336 25 337 17 337 13 c 0
 337 6 334 -5 327 -5 c 0
 293 -5 241 3 174 3 c 0
 126 3 75 -5 49 -5 c 0
 37 -5 33 2 33 9 c 0
 33 24 43 21 72 25 c 0
 121 32 115 49 117 136 c 0
 119 203 120 325 122 552 c 0
 122 609 110 613 56 624 c 0
 46 626 42 630 42 635 c 0
 42 642 45 648 50 648 c 0xec
 88 648 104 643 180 643 c 0
 238 643 315 651 326 651 c 0
 332 651 334 646 334 641 c 0
 334 636 332 631 328 630 c 0
 267 621 224 625 224 584 c 0
 224 539 222 378 222 355 c 0
 222 342 225 341 250 341 c 2
 583 341 l 2
 598 341 603 341 603 360 c 2
 601 562 l 2
 600 614 588 620 522 623 c 0
 511 623 506 629 506 634 c 0
 506 639 510 644 516 644 c 0
 545 644 636 639 649 639 c 0
 707 639 732 641 780 643 c 0
 782 643 784 637 784 633 c 0
 784 630 783 628 782 628 c 0
 731 615 700 627 700 546 c 0xdc
EndSplineSet
Validated: 1
EndChar

StartChar: I
Encoding: 73 73 35
Width: 332
VWidth: 0
Flags: W
HStem: -5 27<37.0118 96.1408 219.67 287.991> 612 31<27.1428 97.9043 215.751 279.98>
VStem: 109 94<31.0623 605.712>
LayerCount: 3
Fore
SplineSet
109 149 m 2
 109 528 l 2
 109 590 105 612 52 612 c 2
 43 612 l 2
 36 612 30 613 27 619 c 0
 26 622 25 624 25 627 c 0
 25 635 30 643 39 643 c 0
 68 643 109 635 154 635 c 18
 166 635 l 2
 205 635 229 639 270 639 c 0
 276 639 280 633 280 627 c 0
 280 621 277 614 272 614 c 2
 266 614 l 2
 244 614 209 612 209 576 c 0
 209 465 203 385 203 297 c 2
 203 152 l 2
 203 128 203 109 204 95 c 0
 207 29 226 30 238 26 c 0
 247 23 261 21 282 16 c 0
 285 15 288 11 288 9 c 0
 288 2 285 -5 278 -5 c 2
 277 -5 l 1
 263 -4 l 2
 225 -1 200 7 159 7 c 0
 111 7 79 -5 53 -5 c 0
 41 -5 37 2 37 9 c 0
 37 22 47 22 51 22 c 0
 54 22 71 24 76 25 c 0
 97 28 108 46 108 57 c 0
 108 91 109 119 109 149 c 2
EndSplineSet
Validated: 1
EndChar

StartChar: J
Encoding: 74 74 36
Width: 304
VWidth: 0
Flags: W
HStem: -212 76<-39 89> 618 30<27.0583 100.974 207.99 274.425>
VStem: 109 96<-45.962 614.039>
LayerCount: 3
Fore
SplineSet
45 618 m 2
 31 618 27 628 27 634 c 0
 27 642 32 648 41 648 c 0
 70 648 110 643 154 643 c 18
 166 643 l 2
 182 643 244 651 265 651 c 0
 271 651 275 645 275 636 c 0
 275 630 268 621 263 621 c 2
 233 618 l 2
 211 616 205 619 205 583 c 0
 205 484 204 404 204 326 c 2
 205 74 l 2
 205 -53 150 -122 80 -170 c 0
 41 -197 3 -212 -16 -212 c 0
 -62 -212 -90 -178 -90 -146 c 0
 -90 -116 -69 -87 -31 -87 c 0
 13 -87 37 -136 72 -136 c 0
 106 -136 108 -4 109 41 c 0
 110 106 111 117 111 149 c 2
 108 559 l 2
 108 605 107 618 52 618 c 2
 45 618 l 2
EndSplineSet
Validated: 1
EndChar

StartChar: N
Encoding: 78 78 39
Width: 810
VWidth: 0
Flags: W
HStem: -3 30<50.0906 132.539 196.431 287.696> 618 32<31.2456 109.227 541.007 629.531 707.552 783.894>
VStem: 150 33<42.297 346.914> 655 36<366.329 594.201> 658 26<168.007 556.03>
LayerCount: 3
Fore
SplineSet
670 644 m 0xf0
 742 644 759 650 771 650 c 0
 780 650 784 645 784 636 c 0
 784 621 771 620 759 620 c 0
 716 620 693 595 691 568 c 0xf0
 686 506 684 413 684 364 c 0
 684 292 683 227 681 155 c 0
 678 23 684 0 663 -0 c 0
 657 0 651 9 647 13 c 0
 467 213 196 515 191 515 c 0
 187 515 183 283 183 153 c 0
 183 124 184 101 184 86 c 0
 186 18 224 28 265 23 c 0
 280 21 288 22 288 8 c 0
 288 0 284 -8 273 -8 c 0
 237 -8 213 2 170 2 c 0
 138 2 87 -3 73 -3 c 0
 53 -3 50 4 50 10 c 0
 50 22 57 27 73 27 c 0
 82 27 90 28 98 28 c 0
 139 29 146 53 150 110 c 0
 155 205 157 277 157 352 c 0
 157 408 157 464 157 520 c 0
 157 542 156 553 145 566 c 0
 107 612 99 610 86 614 c 0
 77 616 55 619 46 619 c 0
 35 619 31 621 31 641 c 0
 31 649 34 656 41 656 c 0
 91 655 99 648 211 644 c 0
 218 644 229 637 271 589 c 0
 365 483 561 259 629 188 c 0
 640 176 647 168 651 168 c 0
 655 168 656 178 656 203 c 0
 656 227 658 261 658 301 c 0xe8
 658 371 658 454 655 520 c 0
 653 570 643 594 626 606 c 0
 609 617 595 618 589 618 c 0
 576 618 570 617 558 617 c 0
 551 617 541 618 541 634 c 0
 541 647 545 650 564 650 c 0
 574 650 610 644 670 644 c 0xf0
EndSplineSet
Validated: 1
EndChar

StartChar: O
Encoding: 79 79 40
Width: 746
VWidth: 0
Flags: W
HStem: -6 30<314.583 466.052> 644 32<293.331 456.839>
VStem: 36 111<217.863 467.424> 614 98<205.545 471.031>
LayerCount: 3
Fore
SplineSet
374 644 m 0
 217 644 147 496 147 344 c 0
 147 186 229 24 390 24 c 0
 480 24 614 78 614 340 c 0
 614 523 526 644 374 644 c 0
370 676 m 0
 558 676 712 570 712 334 c 0
 712 98 537 -6 385 -6 c 0
 194 -6 36 130 36 344 c 0
 36 512 148 676 370 676 c 0
EndSplineSet
Validated: 1
EndChar

StartChar: T
Encoding: 84 84 45
Width: 730
VWidth: 0
Flags: W
HStem: -6 33<213.23 305.742 427.335 527.934> 612 33<99.3398 311.849 423.195 644.995>
VStem: 314 104<31.8225 610.762>
LayerCount: 3
Fore
SplineSet
64 664 m 0
 71 664 95 645 108 645 c 0
 203 645 271 643 345 643 c 0
 435 643 573 642 633 642 c 0
 641 642 667 662 675 662 c 0
 689 662 686 643 697 608 c 2
 716 543 l 2
 717 541 717 539 717 537 c 0
 717 532 715 528 709 528 c 0
 700 528 673 573 645 596 c 0
 629 609 619 609 598 610 c 0
 574 611 531 612 516 612 c 2
 455 612 l 2
 436 612 422 609 422 586 c 0
 422 505 418 240 418 160 c 2
 418 128 l 2
 418 96 420 70 423 54 c 0
 428 28 455 27 466 27 c 2
 504 27 l 2
 522 27 528 24 528 9 c 0
 528 -5 505 -6 504 -6 c 0
 481 -6 429 2 377 2 c 0
 346 2 260 -4 229 -4 c 0
 215 -4 213 6 213 14 c 0
 213 28 226 30 236 30 c 0
 244 30 268 29 280 29 c 0
 313 29 312 57 314 90 c 0
 316 116 317 248 317 354 c 2
 316 516 l 2
 316 612 315 612 275 612 c 2
 182 612 l 2
 115 612 116 611 91 589 c 2
 31 535 l 2
 29 533 27 533 26 533 c 0
 21 533 16 539 16 544 c 0
 16 560 51 635 56 657 c 0
 57 662 61 664 64 664 c 0
EndSplineSet
Validated: 1
EndChar

StartChar: period
Encoding: 46 46 53
Width: 320
VWidth: 0
Flags: W
HStem: -14 106<112.315 197.685>
VStem: 102 106<-3.68506 81.6851>
LayerCount: 3
Fore
SplineSet
102 39 m 0
 102 69 125 92 155 92 c 0
 185 92 208 69 208 39 c 0
 208 9 185 -14 155 -14 c 0
 125 -14 102 9 102 39 c 0
EndSplineSet
Validated: 1
EndChar

StartChar: comma
Encoding: 44 44 54
Width: 306
VWidth: 0
Flags: W
HStem: -1 99<91.7653 164.309>
VStem: 166 55<-83.2435 38>
LayerCount: 3
Fore
SplineSet
125 -164 m 0
 117 -164 106 -155 106 -145 c 0
 106 -138 115 -134 131 -118 c 0
 156 -92 166 -48 166 -31 c 0
 166 -6 157 -1 147 -1 c 0
 140 -1 134 -3 127 -3 c 0
 99 -3 78 8 78 41 c 0
 78 77 110 98 143 98 c 0
 181 98 221 71 221 5 c 0
 221 -63 183 -118 155 -145 c 0
 143 -157 134 -164 125 -164 c 0
EndSplineSet
Validated: 1
Layer: 2
SplineSet
125 -164 m 4
 117 -164 106 -155 106 -145 c 4
 106 -138 115 -134 131 -118 c 4
 156 -92 166 -48 166 -31 c 4
 166 -8 158 3 158 3 c 5
 158 3 145 -3 127 -3 c 4
 99 -3 78 8 78 41 c 4
 78 77 110 98 143 98 c 4
 181 98 221 71 221 5 c 4
 221 -63 183 -118 155 -145 c 4
 143 -157 134 -164 125 -164 c 4
EndSplineSet
EndChar

StartChar: hyphen
Encoding: 45 45 55
Width: 316
VWidth: 0
Flags: W
HStem: 172 58<23.0007 289>
VStem: 23 266<172 230>
LayerCount: 3
Fore
SplineSet
26 230 m 2
 286 230 l 2
 289 230 289 222 289 213 c 2
 289 185 l 2
 289 177 289 172 286 172 c 2
 26 172 l 2
 23 172 23 182 23 196 c 2
 23 215 l 2
 23 224 23 230 26 230 c 2
EndSplineSet
Validated: 1
EndChar

StartChar: colon
Encoding: 58 58 56
Width: 320
VWidth: 0
Flags: W
HStem: -9 94<125.394 204.606> 261 94<125.394 204.606>
VStem: 118 94<-1.60614 77.6061 268.394 347.606>
LayerCount: 3
Fore
SplineSet
118 308 m 0
 118 334 139 355 165 355 c 0
 191 355 212 334 212 308 c 0
 212 282 191 261 165 261 c 0
 139 261 118 282 118 308 c 0
118 38 m 0
 118 64 139 85 165 85 c 0
 191 85 212 64 212 38 c 0
 212 12 191 -9 165 -9 c 0
 139 -9 118 12 118 38 c 0
EndSplineSet
Validated: 1
EndChar

StartChar: semicolon
Encoding: 59 59 57
Width: 328
VWidth: 0
Flags: W
HStem: 8 93<121.195 195.838> 261 94<124.394 203.606>
VStem: 117 94<268.394 347.606> 197 52<-74.7171 38.5>
LayerCount: 3
Fore
SplineSet
191 -120 m 0xd0
 161 -153 141 -155 138 -155 c 0
 131 -155 127 -150 125 -143 c 0
 123 -136 127 -132 135 -125 c 0
 170 -94 197 -51 197 -23 c 0
 197 -4 186 8 158 8 c 0
 124 8 108 27 108 48 c 0
 108 73 132 101 173 101 c 0
 211 101 249 70 249 7 c 0
 249 -62 214 -95 191 -120 c 0xd0
117 308 m 0xe0
 117 334 138 355 164 355 c 0
 190 355 211 334 211 308 c 0
 211 282 190 261 164 261 c 0
 138 261 117 282 117 308 c 0xe0
EndSplineSet
Validated: 1
EndChar

StartChar: exclam
Encoding: 33 33 58
Width: 324
VWidth: 0
Flags: W
HStem: -11 88<124.44 199.56>
VStem: 118 88<-4.56006 70.5601 370.443 626> 146 23<208.295 314.302>
LayerCount: 3
Fore
SplineSet
139 626 m 2xa0
 191 626 l 2
 206 626 212 617 212 608 c 0
 212 599 209 607 169 214 c 0
 168 206 147 205 146 215 c 0
 130 530 131 483 119 608 c 0
 118 616 126 626 139 626 c 2xa0
118 33 m 0xc0
 118 57 138 77 162 77 c 0
 186 77 206 57 206 33 c 0
 206 9 186 -11 162 -11 c 0
 138 -11 118 9 118 33 c 0xc0
EndSplineSet
Validated: 1
EndChar

StartChar: question
Encoding: 63 63 59
Width: 352
VWidth: 0
Flags: W
HStem: -12 82<82.0781 153.922> 516 71<108.986 233.683>
VStem: 77 82<-6.92188 64.9219> 104 34<150.475 238.306> 277 25<331.057 460.865>
LayerCount: 3
Fore
SplineSet
104 516 m 2xd8
 92 516 84 532 84 578 c 0
 84 611 89 618 97 618 c 0
 104 618 104 614 120 595 c 0
 126 587 128 587 140 587 c 0
 223 587 247 557 258 541 c 0
 286 501 302 472 302 380 c 0
 302 297 280 257 239 251 c 0
 148 238 140 241 138 221 c 0
 136 193 132 156 128 150 c 0
 124 144 116 144 113 150 c 0
 108 159 104 241 104 292 c 0
 104 303 106 310 122 310 c 2
 210 310 l 2
 276 310 277 346 277 416 c 0
 277 465 236 516 155 516 c 2
 104 516 l 2xd8
77 29 m 0xe8
 77 51 96 70 118 70 c 0
 140 70 159 51 159 29 c 0
 159 7 140 -12 118 -12 c 0
 96 -12 77 7 77 29 c 0xe8
EndSplineSet
Validated: 1
EndChar

StartChar: parenleft
Encoding: 40 40 60
Width: 408
VWidth: 0
Flags: W
HStem: 659 20G<287.5 291>
VStem: 37 82<91.014 347.445>
LayerCount: 3
Fore
SplineSet
305 -210 m 0
 305 -212 291 -226 279 -226 c 0
 275 -226 267 -221 253 -206 c 0
 63 0 37 131 37 215 c 0
 37 426 211 607 274 670 c 0
 280 676 286 679 289 679 c 0
 293 679 310 667 310 659 c 0
 310 652 300 646 277 620 c 0
 179 509 119 365 119 216 c 0
 119 96 169 -60 283 -184 c 0
 297 -199 305 -205 305 -210 c 0
EndSplineSet
Validated: 1
EndChar

StartChar: parenright
Encoding: 41 41 61
Width: 408
VWidth: 0
Flags: W
HStem: 658 20G<58.5 61.5>
VStem: 229 78<89.9467 353.291>
LayerCount: 3
Fore
SplineSet
42 -210 m 0
 42 -205 50 -199 64 -184 c 0
 178 -60 229 72 229 216 c 0
 229 377 168 509 70 620 c 0
 47 646 42 650 42 657 c 0
 42 665 57 678 60 678 c 0
 63 678 69 676 75 670 c 0
 138 607 307 442 307 215 c 0
 307 146 296 23 92 -206 c 0
 78.3517913245 -221.320783268 72 -224 69 -224 c 0
 60 -224 42 -212 42 -210 c 0
EndSplineSet
Validated: 1
EndChar

StartChar: bracketleft
Encoding: 91 91 62
Width: 355
VWidth: 0
Flags: W
HStem: -230 39<137.579 260.729> -222 27<114.06 227.335> 620 38<122.859 273.994>
VStem: 44 70<-194.999 25.1812> 55 68<66.5605 626.003>
LayerCount: 3
Fore
SplineSet
55 299 m 0x68
 55 609 51 609 51 643 c 0
 51 653 69 656 98 656 c 0
 144 656 213 657 264 658 c 0
 272 658 274 649 274 641 c 2
 274 633 l 2
 274 621 263 620 255 620 c 0
 220 622 169 626 143 626 c 0
 128 626 123 630 123 614 c 2x68
 114 -179 l 2
 114 -194 119 -195 135 -195 c 0x70
 190 -195 246 -191 248 -191 c 0
 255 -191 261 -193 261 -218 c 0
 261 -223 256 -230 229 -230 c 0xb0
 194 -230 125 -222 78 -222 c 0
 47 -222 44 -217 44 -206 c 0x70
 44 -191 55 8 55 299 c 0x68
EndSplineSet
Validated: 1
EndChar

StartChar: bracketright
Encoding: 93 93 63
Width: 355
VWidth: 0
Flags: W
HStem: -228 37<44.0354 193> 620 41<47.0586 175.467> 625 29<64.3813 194.996>
VStem: 193 66<-194.998 625.001> 195 70<1.37086 625.001>
LayerCount: 3
Fore
SplineSet
258 -17 m 0xa8
 258 -129 259 -197 259 -206 c 0
 259 -217 258 -224 231 -224 c 0
 219 -224 97 -228 62 -228 c 0
 48 -228 44 -220 44 -208 c 0
 44 -194 47 -191 54 -191 c 0
 78 -192 139 -195 175 -195 c 0
 188 -195 193 -193 193 -179 c 2xb0
 195 614 l 2
 195 627 189 625 179 625 c 0xa8
 103 625 67 620 62 620 c 0
 52 620 47 633 47 642 c 0
 47 652 52 661 62 661 c 0xc8
 113 660 151 654 240 654 c 0
 265 654 265 650 265 641 c 0
 265 575 258 378 258 -17 c 0xa8
EndSplineSet
Validated: 1
EndChar

StartChar: quoteleft
Encoding: 8216 8216 64
Width: 278
VWidth: 0
Flags: W
HStem: 409 90<119.091 193.881> 659 20G<162.5 179>
VStem: 68 48<468.354 587.594>
LayerCount: 3
Fore
SplineSet
193 664 m 0
 193 657 186 651 169 635 c 0
 143 610 116 574 116 539 c 0
 116 512 125 502 146 499 c 0
 157 498 201 503 201 455 c 0
 201 433 185 409 146 409 c 0
 115 409 68 436 68 502 c 0
 68 594 149 679 176 679 c 0
 182 679 193 675 193 664 c 0
EndSplineSet
Validated: 1
EndChar

StartChar: quoteright
Encoding: 8217 8217 65
Width: 244
VWidth: 0
Flags: W
HStem: 579 98<80.8125 143.291>
VStem: 145 53<512.253 617>
LayerCount: 3
Fore
SplineSet
123 579 m 0
 103 579 69 581 69 622 c 0
 69 646 87 677 128 677 c 0
 165 677 198 641 198 593 c 0
 198 541 163 480 134 444 c 0
 119 426 109 414 100 414 c 0
 91 414 84 420 83 430 c 0
 82 437 88 442 98 454 c 0
 129 491 145 527 145 551 c 0
 145 567 143 579 123 579 c 0
EndSplineSet
Validated: 1
EndChar
